<mxfile host="app.diagrams.net" modified="2023-04-18T20:26:25.984Z" agent="Mozilla/5.0 (Windows NT 10.0; Win64; x64) AppleWebKit/537.36 (KHTML, like Gecko) Chrome/110.0.0.0 YaBrowser/23.3.1.895 Yowser/2.5 Safari/537.36" etag="aI7zNLvtXP4oyZwwog8B" version="21.1.8" type="device">
  <diagram name="Страница 1" id="KYMlImLHPsWkX3AjbHPV">
    <mxGraphModel dx="695" dy="1582" grid="1" gridSize="10" guides="1" tooltips="1" connect="1" arrows="1" fold="1" page="1" pageScale="1" pageWidth="827" pageHeight="1169" math="0" shadow="0">
      <root>
        <mxCell id="0" />
        <mxCell id="1" parent="0" />
        <mxCell id="sbbsoj0sBZE7ObAFe4to-1" value="Гость" style="shape=umlActor;verticalLabelPosition=bottom;verticalAlign=top;html=1;outlineConnect=0;" vertex="1" parent="1">
          <mxGeometry x="100" y="150" width="30" height="60" as="geometry" />
        </mxCell>
        <mxCell id="sbbsoj0sBZE7ObAFe4to-2" value="" style="endArrow=classic;html=1;rounded=0;" edge="1" parent="1" source="sbbsoj0sBZE7ObAFe4to-1" target="sbbsoj0sBZE7ObAFe4to-3">
          <mxGeometry width="50" height="50" relative="1" as="geometry">
            <mxPoint x="510" y="350" as="sourcePoint" />
            <mxPoint x="350" y="150" as="targetPoint" />
          </mxGeometry>
        </mxCell>
        <mxCell id="sbbsoj0sBZE7ObAFe4to-3" value="Регистрация" style="ellipse;whiteSpace=wrap;html=1;" vertex="1" parent="1">
          <mxGeometry x="313" y="90" width="100" height="40" as="geometry" />
        </mxCell>
        <mxCell id="sbbsoj0sBZE7ObAFe4to-4" value="" style="endArrow=classic;html=1;rounded=0;" edge="1" parent="1" source="sbbsoj0sBZE7ObAFe4to-1" target="sbbsoj0sBZE7ObAFe4to-5">
          <mxGeometry width="50" height="50" relative="1" as="geometry">
            <mxPoint x="260" y="182" as="sourcePoint" />
            <mxPoint x="320" y="190" as="targetPoint" />
          </mxGeometry>
        </mxCell>
        <mxCell id="sbbsoj0sBZE7ObAFe4to-5" value="Авторизация" style="ellipse;whiteSpace=wrap;html=1;" vertex="1" parent="1">
          <mxGeometry x="323" y="180" width="80" height="40" as="geometry" />
        </mxCell>
        <mxCell id="sbbsoj0sBZE7ObAFe4to-6" value="Ввод логина" style="ellipse;whiteSpace=wrap;html=1;" vertex="1" parent="1">
          <mxGeometry x="655" y="40" width="100" height="40" as="geometry" />
        </mxCell>
        <mxCell id="sbbsoj0sBZE7ObAFe4to-7" value="Ввод пароля" style="ellipse;whiteSpace=wrap;html=1;" vertex="1" parent="1">
          <mxGeometry x="880" y="140" width="100" height="40" as="geometry" />
        </mxCell>
        <mxCell id="sbbsoj0sBZE7ObAFe4to-8" value="Ввод имени" style="ellipse;whiteSpace=wrap;html=1;" vertex="1" parent="1">
          <mxGeometry x="380" y="-10" width="100" height="40" as="geometry" />
        </mxCell>
        <mxCell id="sbbsoj0sBZE7ObAFe4to-9" value="Повтор пароля" style="ellipse;whiteSpace=wrap;html=1;" vertex="1" parent="1">
          <mxGeometry x="880" y="80" width="100" height="40" as="geometry" />
        </mxCell>
        <mxCell id="sbbsoj0sBZE7ObAFe4to-10" value="" style="endArrow=classic;html=1;rounded=0;entryX=0;entryY=1;entryDx=0;entryDy=0;" edge="1" parent="1" source="sbbsoj0sBZE7ObAFe4to-3" target="sbbsoj0sBZE7ObAFe4to-8">
          <mxGeometry width="50" height="50" relative="1" as="geometry">
            <mxPoint x="397" y="90" as="sourcePoint" />
            <mxPoint x="480" y="44" as="targetPoint" />
          </mxGeometry>
        </mxCell>
        <mxCell id="sbbsoj0sBZE7ObAFe4to-11" value="включить" style="edgeLabel;html=1;align=center;verticalAlign=middle;resizable=0;points=[];" vertex="1" connectable="0" parent="sbbsoj0sBZE7ObAFe4to-10">
          <mxGeometry x="0.2854" y="-1" relative="1" as="geometry">
            <mxPoint as="offset" />
          </mxGeometry>
        </mxCell>
        <mxCell id="sbbsoj0sBZE7ObAFe4to-25" value="Ввод личных данных" style="ellipse;whiteSpace=wrap;html=1;" vertex="1" parent="1">
          <mxGeometry x="510" y="110" width="110" height="50" as="geometry" />
        </mxCell>
        <mxCell id="sbbsoj0sBZE7ObAFe4to-26" value="" style="endArrow=classic;html=1;rounded=0;entryX=0;entryY=0.5;entryDx=0;entryDy=0;exitX=1;exitY=0.5;exitDx=0;exitDy=0;" edge="1" parent="1" source="sbbsoj0sBZE7ObAFe4to-3" target="sbbsoj0sBZE7ObAFe4to-25">
          <mxGeometry width="50" height="50" relative="1" as="geometry">
            <mxPoint x="392" y="101" as="sourcePoint" />
            <mxPoint x="439" y="54" as="targetPoint" />
          </mxGeometry>
        </mxCell>
        <mxCell id="sbbsoj0sBZE7ObAFe4to-27" value="включить" style="edgeLabel;html=1;align=center;verticalAlign=middle;resizable=0;points=[];" vertex="1" connectable="0" parent="sbbsoj0sBZE7ObAFe4to-26">
          <mxGeometry x="0.2854" y="-1" relative="1" as="geometry">
            <mxPoint x="-21" y="-7" as="offset" />
          </mxGeometry>
        </mxCell>
        <mxCell id="sbbsoj0sBZE7ObAFe4to-28" value="" style="endArrow=classic;html=1;rounded=0;entryX=0.03;entryY=0.825;entryDx=0;entryDy=0;exitX=1;exitY=0.5;exitDx=0;exitDy=0;entryPerimeter=0;" edge="1" parent="1" source="sbbsoj0sBZE7ObAFe4to-5" target="sbbsoj0sBZE7ObAFe4to-25">
          <mxGeometry width="50" height="50" relative="1" as="geometry">
            <mxPoint x="403" y="197.32" as="sourcePoint" />
            <mxPoint x="526.1091270347399" y="149.9976695296637" as="targetPoint" />
          </mxGeometry>
        </mxCell>
        <mxCell id="sbbsoj0sBZE7ObAFe4to-29" value="включить" style="edgeLabel;html=1;align=center;verticalAlign=middle;resizable=0;points=[];" vertex="1" connectable="0" parent="sbbsoj0sBZE7ObAFe4to-28">
          <mxGeometry x="0.2854" y="-1" relative="1" as="geometry">
            <mxPoint x="-25" y="11" as="offset" />
          </mxGeometry>
        </mxCell>
        <mxCell id="sbbsoj0sBZE7ObAFe4to-30" value="" style="endArrow=classic;html=1;rounded=0;entryX=0.247;entryY=0.971;entryDx=0;entryDy=0;exitX=0.646;exitY=-0.001;exitDx=0;exitDy=0;entryPerimeter=0;exitPerimeter=0;" edge="1" parent="1" source="sbbsoj0sBZE7ObAFe4to-25" target="sbbsoj0sBZE7ObAFe4to-6">
          <mxGeometry width="50" height="50" relative="1" as="geometry">
            <mxPoint x="413" y="210" as="sourcePoint" />
            <mxPoint x="523" y="161" as="targetPoint" />
          </mxGeometry>
        </mxCell>
        <mxCell id="sbbsoj0sBZE7ObAFe4to-31" value="включить" style="edgeLabel;html=1;align=center;verticalAlign=middle;resizable=0;points=[];" vertex="1" connectable="0" parent="sbbsoj0sBZE7ObAFe4to-30">
          <mxGeometry x="0.2854" y="-1" relative="1" as="geometry">
            <mxPoint x="-12" y="11" as="offset" />
          </mxGeometry>
        </mxCell>
        <mxCell id="sbbsoj0sBZE7ObAFe4to-32" value="" style="endArrow=classic;html=1;rounded=0;entryX=0.001;entryY=0.564;entryDx=0;entryDy=0;entryPerimeter=0;exitX=1;exitY=1;exitDx=0;exitDy=0;" edge="1" parent="1" source="sbbsoj0sBZE7ObAFe4to-158" target="sbbsoj0sBZE7ObAFe4to-7">
          <mxGeometry width="50" height="50" relative="1" as="geometry">
            <mxPoint x="730" y="180" as="sourcePoint" />
            <mxPoint x="750" y="120" as="targetPoint" />
          </mxGeometry>
        </mxCell>
        <mxCell id="sbbsoj0sBZE7ObAFe4to-33" value="включить" style="edgeLabel;html=1;align=center;verticalAlign=middle;resizable=0;points=[];" vertex="1" connectable="0" parent="sbbsoj0sBZE7ObAFe4to-32">
          <mxGeometry x="0.2854" y="-1" relative="1" as="geometry">
            <mxPoint x="-8" y="-9" as="offset" />
          </mxGeometry>
        </mxCell>
        <mxCell id="sbbsoj0sBZE7ObAFe4to-34" value="" style="endArrow=classic;html=1;rounded=0;entryX=0;entryY=0.5;entryDx=0;entryDy=0;exitX=1;exitY=0;exitDx=0;exitDy=0;" edge="1" parent="1" source="sbbsoj0sBZE7ObAFe4to-158" target="sbbsoj0sBZE7ObAFe4to-9">
          <mxGeometry width="50" height="50" relative="1" as="geometry">
            <mxPoint x="730" y="130" as="sourcePoint" />
            <mxPoint x="760" y="130" as="targetPoint" />
          </mxGeometry>
        </mxCell>
        <mxCell id="sbbsoj0sBZE7ObAFe4to-35" value="включить" style="edgeLabel;html=1;align=center;verticalAlign=middle;resizable=0;points=[];" vertex="1" connectable="0" parent="sbbsoj0sBZE7ObAFe4to-34">
          <mxGeometry x="0.2854" y="-1" relative="1" as="geometry">
            <mxPoint x="-15" as="offset" />
          </mxGeometry>
        </mxCell>
        <mxCell id="sbbsoj0sBZE7ObAFe4to-36" value="" style="shape=flexArrow;endArrow=classic;html=1;rounded=0;" edge="1" parent="1">
          <mxGeometry width="50" height="50" relative="1" as="geometry">
            <mxPoint x="114.5" y="420" as="sourcePoint" />
            <mxPoint x="115" y="250" as="targetPoint" />
          </mxGeometry>
        </mxCell>
        <mxCell id="sbbsoj0sBZE7ObAFe4to-37" value="Пользователь" style="shape=umlActor;verticalLabelPosition=bottom;verticalAlign=top;html=1;outlineConnect=0;" vertex="1" parent="1">
          <mxGeometry x="100" y="450" width="30" height="60" as="geometry" />
        </mxCell>
        <mxCell id="sbbsoj0sBZE7ObAFe4to-38" value="Поиск людей" style="ellipse;whiteSpace=wrap;html=1;" vertex="1" parent="1">
          <mxGeometry x="323" y="410" width="107" height="40" as="geometry" />
        </mxCell>
        <mxCell id="sbbsoj0sBZE7ObAFe4to-39" value="" style="endArrow=classic;html=1;rounded=0;entryX=0;entryY=0.5;entryDx=0;entryDy=0;" edge="1" parent="1" source="sbbsoj0sBZE7ObAFe4to-37" target="sbbsoj0sBZE7ObAFe4to-38">
          <mxGeometry width="50" height="50" relative="1" as="geometry">
            <mxPoint x="260" y="292" as="sourcePoint" />
            <mxPoint x="335" y="304" as="targetPoint" />
          </mxGeometry>
        </mxCell>
        <mxCell id="sbbsoj0sBZE7ObAFe4to-40" value="Работа с людьми" style="ellipse;whiteSpace=wrap;html=1;" vertex="1" parent="1">
          <mxGeometry x="530" y="370" width="190" height="40" as="geometry" />
        </mxCell>
        <mxCell id="sbbsoj0sBZE7ObAFe4to-41" value="" style="endArrow=classic;html=1;rounded=0;entryX=1;entryY=0.5;entryDx=0;entryDy=0;exitX=0;exitY=0.5;exitDx=0;exitDy=0;" edge="1" parent="1" source="sbbsoj0sBZE7ObAFe4to-40" target="sbbsoj0sBZE7ObAFe4to-38">
          <mxGeometry width="50" height="50" relative="1" as="geometry">
            <mxPoint x="575" y="270" as="sourcePoint" />
            <mxPoint x="685" y="306" as="targetPoint" />
          </mxGeometry>
        </mxCell>
        <mxCell id="sbbsoj0sBZE7ObAFe4to-42" value="расширить" style="edgeLabel;html=1;align=center;verticalAlign=middle;resizable=0;points=[];" vertex="1" connectable="0" parent="sbbsoj0sBZE7ObAFe4to-41">
          <mxGeometry x="0.2854" y="-1" relative="1" as="geometry">
            <mxPoint x="14" y="-5" as="offset" />
          </mxGeometry>
        </mxCell>
        <mxCell id="sbbsoj0sBZE7ObAFe4to-43" value="Работа с сообщением" style="ellipse;whiteSpace=wrap;html=1;" vertex="1" parent="1">
          <mxGeometry x="550" y="440" width="190" height="40" as="geometry" />
        </mxCell>
        <mxCell id="sbbsoj0sBZE7ObAFe4to-44" value="" style="endArrow=classic;html=1;rounded=0;entryX=1;entryY=1;entryDx=0;entryDy=0;exitX=0;exitY=0.5;exitDx=0;exitDy=0;" edge="1" parent="1" source="sbbsoj0sBZE7ObAFe4to-43" target="sbbsoj0sBZE7ObAFe4to-38">
          <mxGeometry width="50" height="50" relative="1" as="geometry">
            <mxPoint x="540" y="400" as="sourcePoint" />
            <mxPoint x="440" y="440" as="targetPoint" />
          </mxGeometry>
        </mxCell>
        <mxCell id="sbbsoj0sBZE7ObAFe4to-45" value="расширить" style="edgeLabel;html=1;align=center;verticalAlign=middle;resizable=0;points=[];" vertex="1" connectable="0" parent="sbbsoj0sBZE7ObAFe4to-44">
          <mxGeometry x="0.2854" y="-1" relative="1" as="geometry">
            <mxPoint x="27" y="1" as="offset" />
          </mxGeometry>
        </mxCell>
        <mxCell id="sbbsoj0sBZE7ObAFe4to-46" value="Добавить в друзья" style="ellipse;whiteSpace=wrap;html=1;" vertex="1" parent="1">
          <mxGeometry x="850" y="330" width="100" height="40" as="geometry" />
        </mxCell>
        <mxCell id="sbbsoj0sBZE7ObAFe4to-47" value="" style="endArrow=classic;html=1;rounded=0;entryX=1;entryY=0.5;entryDx=0;entryDy=0;exitX=0;exitY=0.5;exitDx=0;exitDy=0;" edge="1" parent="1" source="sbbsoj0sBZE7ObAFe4to-46" target="sbbsoj0sBZE7ObAFe4to-40">
          <mxGeometry width="50" height="50" relative="1" as="geometry">
            <mxPoint x="540" y="400" as="sourcePoint" />
            <mxPoint x="440" y="440" as="targetPoint" />
          </mxGeometry>
        </mxCell>
        <mxCell id="sbbsoj0sBZE7ObAFe4to-48" value="расширить" style="edgeLabel;html=1;align=center;verticalAlign=middle;resizable=0;points=[];" vertex="1" connectable="0" parent="sbbsoj0sBZE7ObAFe4to-47">
          <mxGeometry x="0.2854" y="-1" relative="1" as="geometry">
            <mxPoint x="14" y="-5" as="offset" />
          </mxGeometry>
        </mxCell>
        <mxCell id="sbbsoj0sBZE7ObAFe4to-49" value="Удалить из друзей" style="ellipse;whiteSpace=wrap;html=1;" vertex="1" parent="1">
          <mxGeometry x="840" y="410" width="100" height="40" as="geometry" />
        </mxCell>
        <mxCell id="sbbsoj0sBZE7ObAFe4to-50" value="" style="endArrow=classic;html=1;rounded=0;entryX=1;entryY=0.5;entryDx=0;entryDy=0;exitX=0;exitY=0.5;exitDx=0;exitDy=0;" edge="1" parent="1" source="sbbsoj0sBZE7ObAFe4to-49" target="sbbsoj0sBZE7ObAFe4to-40">
          <mxGeometry width="50" height="50" relative="1" as="geometry">
            <mxPoint x="860" y="360" as="sourcePoint" />
            <mxPoint x="730" y="400" as="targetPoint" />
          </mxGeometry>
        </mxCell>
        <mxCell id="sbbsoj0sBZE7ObAFe4to-51" value="расширить" style="edgeLabel;html=1;align=center;verticalAlign=middle;resizable=0;points=[];" vertex="1" connectable="0" parent="sbbsoj0sBZE7ObAFe4to-50">
          <mxGeometry x="0.2854" y="-1" relative="1" as="geometry">
            <mxPoint x="14" y="-5" as="offset" />
          </mxGeometry>
        </mxCell>
        <mxCell id="sbbsoj0sBZE7ObAFe4to-52" value="Написать сообщение" style="ellipse;whiteSpace=wrap;html=1;" vertex="1" parent="1">
          <mxGeometry x="827" y="470" width="100" height="40" as="geometry" />
        </mxCell>
        <mxCell id="sbbsoj0sBZE7ObAFe4to-53" value="" style="endArrow=classic;html=1;rounded=0;entryX=1;entryY=0.5;entryDx=0;entryDy=0;exitX=0;exitY=0.5;exitDx=0;exitDy=0;" edge="1" parent="1" source="sbbsoj0sBZE7ObAFe4to-52" target="sbbsoj0sBZE7ObAFe4to-43">
          <mxGeometry width="50" height="50" relative="1" as="geometry">
            <mxPoint x="850" y="440" as="sourcePoint" />
            <mxPoint x="730" y="400" as="targetPoint" />
          </mxGeometry>
        </mxCell>
        <mxCell id="sbbsoj0sBZE7ObAFe4to-54" value="расширить" style="edgeLabel;html=1;align=center;verticalAlign=middle;resizable=0;points=[];" vertex="1" connectable="0" parent="sbbsoj0sBZE7ObAFe4to-53">
          <mxGeometry x="0.2854" y="-1" relative="1" as="geometry">
            <mxPoint x="28" y="10" as="offset" />
          </mxGeometry>
        </mxCell>
        <mxCell id="sbbsoj0sBZE7ObAFe4to-55" value="Редактировать&lt;br&gt;сообщение" style="ellipse;whiteSpace=wrap;html=1;" vertex="1" parent="1">
          <mxGeometry x="780" y="530" width="130" height="40" as="geometry" />
        </mxCell>
        <mxCell id="sbbsoj0sBZE7ObAFe4to-56" value="" style="endArrow=classic;html=1;rounded=0;entryX=0.772;entryY=1.004;entryDx=0;entryDy=0;exitX=0;exitY=0.5;exitDx=0;exitDy=0;entryPerimeter=0;" edge="1" parent="1" source="sbbsoj0sBZE7ObAFe4to-55" target="sbbsoj0sBZE7ObAFe4to-43">
          <mxGeometry width="50" height="50" relative="1" as="geometry">
            <mxPoint x="760" y="550" as="sourcePoint" />
            <mxPoint x="673" y="520" as="targetPoint" />
          </mxGeometry>
        </mxCell>
        <mxCell id="sbbsoj0sBZE7ObAFe4to-57" value="расширить" style="edgeLabel;html=1;align=center;verticalAlign=middle;resizable=0;points=[];" vertex="1" connectable="0" parent="sbbsoj0sBZE7ObAFe4to-56">
          <mxGeometry x="0.2854" y="-1" relative="1" as="geometry">
            <mxPoint x="13" y="16" as="offset" />
          </mxGeometry>
        </mxCell>
        <mxCell id="sbbsoj0sBZE7ObAFe4to-58" value="Удалить сообщение" style="ellipse;whiteSpace=wrap;html=1;" vertex="1" parent="1">
          <mxGeometry x="590" y="545" width="130" height="40" as="geometry" />
        </mxCell>
        <mxCell id="sbbsoj0sBZE7ObAFe4to-59" value="" style="endArrow=classic;html=1;rounded=0;entryX=0.5;entryY=1;entryDx=0;entryDy=0;exitX=0.5;exitY=0;exitDx=0;exitDy=0;" edge="1" parent="1" source="sbbsoj0sBZE7ObAFe4to-58" target="sbbsoj0sBZE7ObAFe4to-43">
          <mxGeometry width="50" height="50" relative="1" as="geometry">
            <mxPoint x="790" y="560" as="sourcePoint" />
            <mxPoint x="707" y="490" as="targetPoint" />
          </mxGeometry>
        </mxCell>
        <mxCell id="sbbsoj0sBZE7ObAFe4to-60" value="расширить" style="edgeLabel;html=1;align=center;verticalAlign=middle;resizable=0;points=[];" vertex="1" connectable="0" parent="sbbsoj0sBZE7ObAFe4to-59">
          <mxGeometry x="0.2854" y="-1" relative="1" as="geometry">
            <mxPoint x="5" y="17" as="offset" />
          </mxGeometry>
        </mxCell>
        <mxCell id="sbbsoj0sBZE7ObAFe4to-61" value="Звонок" style="ellipse;whiteSpace=wrap;html=1;" vertex="1" parent="1">
          <mxGeometry x="580" y="610" width="96" height="35" as="geometry" />
        </mxCell>
        <mxCell id="sbbsoj0sBZE7ObAFe4to-64" value="Записать голосовое сообщение" style="ellipse;whiteSpace=wrap;html=1;" vertex="1" parent="1">
          <mxGeometry x="430" y="520" width="140" height="50" as="geometry" />
        </mxCell>
        <mxCell id="sbbsoj0sBZE7ObAFe4to-65" value="" style="endArrow=classic;html=1;rounded=0;entryX=0;entryY=1;entryDx=0;entryDy=0;exitX=0.5;exitY=0;exitDx=0;exitDy=0;" edge="1" parent="1" source="sbbsoj0sBZE7ObAFe4to-64" target="sbbsoj0sBZE7ObAFe4to-43">
          <mxGeometry width="50" height="50" relative="1" as="geometry">
            <mxPoint x="665" y="555" as="sourcePoint" />
            <mxPoint x="655" y="490" as="targetPoint" />
          </mxGeometry>
        </mxCell>
        <mxCell id="sbbsoj0sBZE7ObAFe4to-66" value="расширить" style="edgeLabel;html=1;align=center;verticalAlign=middle;resizable=0;points=[];" vertex="1" connectable="0" parent="sbbsoj0sBZE7ObAFe4to-65">
          <mxGeometry x="0.2854" y="-1" relative="1" as="geometry">
            <mxPoint x="-16" y="8" as="offset" />
          </mxGeometry>
        </mxCell>
        <mxCell id="sbbsoj0sBZE7ObAFe4to-67" value="Начать звонок" style="ellipse;whiteSpace=wrap;html=1;" vertex="1" parent="1">
          <mxGeometry x="687" y="705" width="100" height="40" as="geometry" />
        </mxCell>
        <mxCell id="sbbsoj0sBZE7ObAFe4to-68" value="" style="endArrow=classic;html=1;rounded=0;entryX=0;entryY=0;entryDx=0;entryDy=0;" edge="1" parent="1" source="sbbsoj0sBZE7ObAFe4to-37" target="sbbsoj0sBZE7ObAFe4to-61">
          <mxGeometry width="50" height="50" relative="1" as="geometry">
            <mxPoint x="260" y="481" as="sourcePoint" />
            <mxPoint x="333" y="440" as="targetPoint" />
          </mxGeometry>
        </mxCell>
        <mxCell id="sbbsoj0sBZE7ObAFe4to-71" value="" style="endArrow=classic;html=1;rounded=0;entryX=0.5;entryY=1;entryDx=0;entryDy=0;exitX=0.5;exitY=0;exitDx=0;exitDy=0;" edge="1" parent="1" source="sbbsoj0sBZE7ObAFe4to-67" target="sbbsoj0sBZE7ObAFe4to-61">
          <mxGeometry width="50" height="50" relative="1" as="geometry">
            <mxPoint x="907" y="545" as="sourcePoint" />
            <mxPoint x="771" y="529" as="targetPoint" />
          </mxGeometry>
        </mxCell>
        <mxCell id="sbbsoj0sBZE7ObAFe4to-72" value="расширить" style="edgeLabel;html=1;align=center;verticalAlign=middle;resizable=0;points=[];" vertex="1" connectable="0" parent="sbbsoj0sBZE7ObAFe4to-71">
          <mxGeometry x="0.2854" y="-1" relative="1" as="geometry">
            <mxPoint x="4" y="12" as="offset" />
          </mxGeometry>
        </mxCell>
        <mxCell id="sbbsoj0sBZE7ObAFe4to-73" value="Ответить на звонок" style="ellipse;whiteSpace=wrap;html=1;" vertex="1" parent="1">
          <mxGeometry x="827" y="685" width="100" height="40" as="geometry" />
        </mxCell>
        <mxCell id="sbbsoj0sBZE7ObAFe4to-74" value="" style="endArrow=classic;html=1;rounded=0;entryX=1;entryY=1;entryDx=0;entryDy=0;exitX=0;exitY=0;exitDx=0;exitDy=0;" edge="1" parent="1" source="sbbsoj0sBZE7ObAFe4to-73" target="sbbsoj0sBZE7ObAFe4to-61">
          <mxGeometry width="50" height="50" relative="1" as="geometry">
            <mxPoint x="747" y="715" as="sourcePoint" />
            <mxPoint x="719" y="665" as="targetPoint" />
          </mxGeometry>
        </mxCell>
        <mxCell id="sbbsoj0sBZE7ObAFe4to-75" value="расширить" style="edgeLabel;html=1;align=center;verticalAlign=middle;resizable=0;points=[];" vertex="1" connectable="0" parent="sbbsoj0sBZE7ObAFe4to-74">
          <mxGeometry x="0.2854" y="-1" relative="1" as="geometry">
            <mxPoint x="17" y="1" as="offset" />
          </mxGeometry>
        </mxCell>
        <mxCell id="sbbsoj0sBZE7ObAFe4to-76" value="Отклонить звонок" style="ellipse;whiteSpace=wrap;html=1;" vertex="1" parent="1">
          <mxGeometry x="557" y="695" width="100" height="40" as="geometry" />
        </mxCell>
        <mxCell id="sbbsoj0sBZE7ObAFe4to-77" value="" style="endArrow=classic;html=1;rounded=0;entryX=0;entryY=1;entryDx=0;entryDy=0;exitX=0.5;exitY=0;exitDx=0;exitDy=0;" edge="1" parent="1" source="sbbsoj0sBZE7ObAFe4to-76" target="sbbsoj0sBZE7ObAFe4to-61">
          <mxGeometry width="50" height="50" relative="1" as="geometry">
            <mxPoint x="747" y="715" as="sourcePoint" />
            <mxPoint x="719" y="665" as="targetPoint" />
          </mxGeometry>
        </mxCell>
        <mxCell id="sbbsoj0sBZE7ObAFe4to-78" value="расширить" style="edgeLabel;html=1;align=center;verticalAlign=middle;resizable=0;points=[];" vertex="1" connectable="0" parent="sbbsoj0sBZE7ObAFe4to-77">
          <mxGeometry x="0.2854" y="-1" relative="1" as="geometry">
            <mxPoint x="-14" y="8" as="offset" />
          </mxGeometry>
        </mxCell>
        <mxCell id="sbbsoj0sBZE7ObAFe4to-81" value="Прекратить звонок" style="ellipse;whiteSpace=wrap;html=1;" vertex="1" parent="1">
          <mxGeometry x="810" y="600" width="100" height="40" as="geometry" />
        </mxCell>
        <mxCell id="sbbsoj0sBZE7ObAFe4to-82" value="" style="endArrow=classic;html=1;rounded=0;entryX=1;entryY=0.5;entryDx=0;entryDy=0;exitX=0;exitY=0.5;exitDx=0;exitDy=0;" edge="1" parent="1" source="sbbsoj0sBZE7ObAFe4to-81" target="sbbsoj0sBZE7ObAFe4to-61">
          <mxGeometry width="50" height="50" relative="1" as="geometry">
            <mxPoint x="852" y="701" as="sourcePoint" />
            <mxPoint x="753" y="660" as="targetPoint" />
          </mxGeometry>
        </mxCell>
        <mxCell id="sbbsoj0sBZE7ObAFe4to-83" value="расширить" style="edgeLabel;html=1;align=center;verticalAlign=middle;resizable=0;points=[];" vertex="1" connectable="0" parent="sbbsoj0sBZE7ObAFe4to-82">
          <mxGeometry x="0.2854" y="-1" relative="1" as="geometry">
            <mxPoint x="17" y="1" as="offset" />
          </mxGeometry>
        </mxCell>
        <mxCell id="sbbsoj0sBZE7ObAFe4to-84" value="Пожаловаться на пользователя" style="ellipse;whiteSpace=wrap;html=1;" vertex="1" parent="1">
          <mxGeometry x="200" y="560" width="150" height="50" as="geometry" />
        </mxCell>
        <mxCell id="sbbsoj0sBZE7ObAFe4to-85" value="" style="endArrow=classic;html=1;rounded=0;entryX=0.5;entryY=0;entryDx=0;entryDy=0;" edge="1" parent="1" source="sbbsoj0sBZE7ObAFe4to-37" target="sbbsoj0sBZE7ObAFe4to-84">
          <mxGeometry width="50" height="50" relative="1" as="geometry">
            <mxPoint x="140" y="494" as="sourcePoint" />
            <mxPoint x="684" y="635" as="targetPoint" />
          </mxGeometry>
        </mxCell>
        <mxCell id="sbbsoj0sBZE7ObAFe4to-86" value="Указать причину" style="ellipse;whiteSpace=wrap;html=1;" vertex="1" parent="1">
          <mxGeometry x="404" y="640" width="120" height="40" as="geometry" />
        </mxCell>
        <mxCell id="sbbsoj0sBZE7ObAFe4to-88" value="" style="endArrow=classic;html=1;rounded=0;entryX=0;entryY=0;entryDx=0;entryDy=0;exitX=0.935;exitY=0.861;exitDx=0;exitDy=0;exitPerimeter=0;" edge="1" parent="1" source="sbbsoj0sBZE7ObAFe4to-84" target="sbbsoj0sBZE7ObAFe4to-86">
          <mxGeometry width="50" height="50" relative="1" as="geometry">
            <mxPoint x="413" y="310" as="sourcePoint" />
            <mxPoint x="523" y="261" as="targetPoint" />
          </mxGeometry>
        </mxCell>
        <mxCell id="sbbsoj0sBZE7ObAFe4to-89" value="включить" style="edgeLabel;html=1;align=center;verticalAlign=middle;resizable=0;points=[];" vertex="1" connectable="0" parent="sbbsoj0sBZE7ObAFe4to-88">
          <mxGeometry x="0.2854" y="-1" relative="1" as="geometry">
            <mxPoint x="-21" y="-12" as="offset" />
          </mxGeometry>
        </mxCell>
        <mxCell id="sbbsoj0sBZE7ObAFe4to-91" value="Ответить стикером" style="ellipse;whiteSpace=wrap;html=1;" vertex="1" parent="1">
          <mxGeometry x="1020" y="460" width="120" height="40" as="geometry" />
        </mxCell>
        <mxCell id="sbbsoj0sBZE7ObAFe4to-92" value="" style="endArrow=classic;html=1;rounded=0;entryX=1;entryY=0.5;entryDx=0;entryDy=0;exitX=0;exitY=0.5;exitDx=0;exitDy=0;" edge="1" parent="1" source="sbbsoj0sBZE7ObAFe4to-91" target="sbbsoj0sBZE7ObAFe4to-52">
          <mxGeometry width="50" height="50" relative="1" as="geometry">
            <mxPoint x="837" y="500" as="sourcePoint" />
            <mxPoint x="750" y="470" as="targetPoint" />
          </mxGeometry>
        </mxCell>
        <mxCell id="sbbsoj0sBZE7ObAFe4to-93" value="расширить" style="edgeLabel;html=1;align=center;verticalAlign=middle;resizable=0;points=[];" vertex="1" connectable="0" parent="sbbsoj0sBZE7ObAFe4to-92">
          <mxGeometry x="0.2854" y="-1" relative="1" as="geometry">
            <mxPoint x="20" y="-5" as="offset" />
          </mxGeometry>
        </mxCell>
        <mxCell id="sbbsoj0sBZE7ObAFe4to-94" value="Модератор" style="shape=umlActor;verticalLabelPosition=bottom;verticalAlign=top;html=1;outlineConnect=0;" vertex="1" parent="1">
          <mxGeometry x="100" y="705" width="30" height="60" as="geometry" />
        </mxCell>
        <mxCell id="sbbsoj0sBZE7ObAFe4to-95" value="" style="shape=flexArrow;endArrow=classic;html=1;rounded=0;" edge="1" parent="1">
          <mxGeometry width="50" height="50" relative="1" as="geometry">
            <mxPoint x="114" y="680" as="sourcePoint" />
            <mxPoint x="114.38" y="540" as="targetPoint" />
          </mxGeometry>
        </mxCell>
        <mxCell id="sbbsoj0sBZE7ObAFe4to-97" value="Просмотр списка жалоб" style="ellipse;whiteSpace=wrap;html=1;" vertex="1" parent="1">
          <mxGeometry x="240" y="735" width="150" height="50" as="geometry" />
        </mxCell>
        <mxCell id="sbbsoj0sBZE7ObAFe4to-98" value="" style="endArrow=classic;html=1;rounded=0;entryX=0;entryY=0.5;entryDx=0;entryDy=0;" edge="1" parent="1" source="sbbsoj0sBZE7ObAFe4to-94" target="sbbsoj0sBZE7ObAFe4to-97">
          <mxGeometry width="50" height="50" relative="1" as="geometry">
            <mxPoint x="140" y="498" as="sourcePoint" />
            <mxPoint x="285" y="570" as="targetPoint" />
          </mxGeometry>
        </mxCell>
        <mxCell id="sbbsoj0sBZE7ObAFe4to-99" value="Ответить на жалобу" style="ellipse;whiteSpace=wrap;html=1;" vertex="1" parent="1">
          <mxGeometry x="510" y="745" width="100" height="40" as="geometry" />
        </mxCell>
        <mxCell id="sbbsoj0sBZE7ObAFe4to-104" value="" style="endArrow=classic;html=1;rounded=0;entryX=0;entryY=0.5;entryDx=0;entryDy=0;exitX=1;exitY=0.5;exitDx=0;exitDy=0;" edge="1" parent="1" source="sbbsoj0sBZE7ObAFe4to-97" target="sbbsoj0sBZE7ObAFe4to-99">
          <mxGeometry width="50" height="50" relative="1" as="geometry">
            <mxPoint x="350" y="613" as="sourcePoint" />
            <mxPoint x="432" y="656" as="targetPoint" />
          </mxGeometry>
        </mxCell>
        <mxCell id="sbbsoj0sBZE7ObAFe4to-105" value="включить" style="edgeLabel;html=1;align=center;verticalAlign=middle;resizable=0;points=[];" vertex="1" connectable="0" parent="sbbsoj0sBZE7ObAFe4to-104">
          <mxGeometry x="0.2854" y="-1" relative="1" as="geometry">
            <mxPoint x="-21" y="-4" as="offset" />
          </mxGeometry>
        </mxCell>
        <mxCell id="sbbsoj0sBZE7ObAFe4to-106" value="Отклонить жалобу" style="ellipse;whiteSpace=wrap;html=1;" vertex="1" parent="1">
          <mxGeometry x="870" y="740" width="100" height="40" as="geometry" />
        </mxCell>
        <mxCell id="sbbsoj0sBZE7ObAFe4to-107" value="" style="endArrow=classic;html=1;rounded=0;entryX=1;entryY=0.5;entryDx=0;entryDy=0;exitX=0;exitY=0.5;exitDx=0;exitDy=0;" edge="1" parent="1" source="sbbsoj0sBZE7ObAFe4to-106" target="sbbsoj0sBZE7ObAFe4to-99">
          <mxGeometry width="50" height="50" relative="1" as="geometry">
            <mxPoint x="747" y="715" as="sourcePoint" />
            <mxPoint x="638" y="655" as="targetPoint" />
          </mxGeometry>
        </mxCell>
        <mxCell id="sbbsoj0sBZE7ObAFe4to-108" value="расширить" style="edgeLabel;html=1;align=center;verticalAlign=middle;resizable=0;points=[];" vertex="1" connectable="0" parent="sbbsoj0sBZE7ObAFe4to-107">
          <mxGeometry x="0.2854" y="-1" relative="1" as="geometry">
            <mxPoint x="8" y="1" as="offset" />
          </mxGeometry>
        </mxCell>
        <mxCell id="sbbsoj0sBZE7ObAFe4to-109" value="Проверить жалобу" style="ellipse;whiteSpace=wrap;html=1;" vertex="1" parent="1">
          <mxGeometry x="514" y="830" width="100" height="40" as="geometry" />
        </mxCell>
        <mxCell id="sbbsoj0sBZE7ObAFe4to-110" value="" style="endArrow=classic;html=1;rounded=0;entryX=0.5;entryY=1;entryDx=0;entryDy=0;exitX=0.5;exitY=0;exitDx=0;exitDy=0;" edge="1" parent="1" source="sbbsoj0sBZE7ObAFe4to-109" target="sbbsoj0sBZE7ObAFe4to-99">
          <mxGeometry width="50" height="50" relative="1" as="geometry">
            <mxPoint x="737" y="790" as="sourcePoint" />
            <mxPoint x="620" y="775" as="targetPoint" />
          </mxGeometry>
        </mxCell>
        <mxCell id="sbbsoj0sBZE7ObAFe4to-111" value="расширить" style="edgeLabel;html=1;align=center;verticalAlign=middle;resizable=0;points=[];" vertex="1" connectable="0" parent="sbbsoj0sBZE7ObAFe4to-110">
          <mxGeometry x="0.2854" y="-1" relative="1" as="geometry">
            <mxPoint x="8" y="1" as="offset" />
          </mxGeometry>
        </mxCell>
        <mxCell id="sbbsoj0sBZE7ObAFe4to-112" value="Просмотр профиля человека, на кого пришла жалоба" style="ellipse;whiteSpace=wrap;html=1;" vertex="1" parent="1">
          <mxGeometry x="720" y="810" width="210" height="60" as="geometry" />
        </mxCell>
        <mxCell id="sbbsoj0sBZE7ObAFe4to-115" value="" style="endArrow=classic;html=1;rounded=0;entryX=0;entryY=0.5;entryDx=0;entryDy=0;exitX=1;exitY=0.5;exitDx=0;exitDy=0;" edge="1" parent="1" source="sbbsoj0sBZE7ObAFe4to-109" target="sbbsoj0sBZE7ObAFe4to-112">
          <mxGeometry width="50" height="50" relative="1" as="geometry">
            <mxPoint x="400" y="770" as="sourcePoint" />
            <mxPoint x="520" y="775" as="targetPoint" />
          </mxGeometry>
        </mxCell>
        <mxCell id="sbbsoj0sBZE7ObAFe4to-116" value="включить" style="edgeLabel;html=1;align=center;verticalAlign=middle;resizable=0;points=[];" vertex="1" connectable="0" parent="sbbsoj0sBZE7ObAFe4to-115">
          <mxGeometry x="0.2854" y="-1" relative="1" as="geometry">
            <mxPoint x="-21" y="-4" as="offset" />
          </mxGeometry>
        </mxCell>
        <mxCell id="sbbsoj0sBZE7ObAFe4to-117" value="Просмотр переписки" style="ellipse;whiteSpace=wrap;html=1;" vertex="1" parent="1">
          <mxGeometry x="689" y="900" width="138" height="30" as="geometry" />
        </mxCell>
        <mxCell id="sbbsoj0sBZE7ObAFe4to-118" value="" style="endArrow=classic;html=1;rounded=0;entryX=0;entryY=0;entryDx=0;entryDy=0;exitX=0.5;exitY=1;exitDx=0;exitDy=0;" edge="1" parent="1" source="sbbsoj0sBZE7ObAFe4to-109" target="sbbsoj0sBZE7ObAFe4to-117">
          <mxGeometry width="50" height="50" relative="1" as="geometry">
            <mxPoint x="660" y="870" as="sourcePoint" />
            <mxPoint x="737" y="880" as="targetPoint" />
          </mxGeometry>
        </mxCell>
        <mxCell id="sbbsoj0sBZE7ObAFe4to-119" value="включить" style="edgeLabel;html=1;align=center;verticalAlign=middle;resizable=0;points=[];" vertex="1" connectable="0" parent="sbbsoj0sBZE7ObAFe4to-118">
          <mxGeometry x="0.2854" y="-1" relative="1" as="geometry">
            <mxPoint x="-21" y="-4" as="offset" />
          </mxGeometry>
        </mxCell>
        <mxCell id="sbbsoj0sBZE7ObAFe4to-120" value="Вынести вердикт" style="ellipse;whiteSpace=wrap;html=1;" vertex="1" parent="1">
          <mxGeometry x="980" y="880" width="100" height="40" as="geometry" />
        </mxCell>
        <mxCell id="sbbsoj0sBZE7ObAFe4to-121" value="" style="endArrow=classic;html=1;rounded=0;entryX=0;entryY=0.5;entryDx=0;entryDy=0;exitX=1;exitY=1;exitDx=0;exitDy=0;" edge="1" parent="1" source="sbbsoj0sBZE7ObAFe4to-109" target="sbbsoj0sBZE7ObAFe4to-120">
          <mxGeometry width="50" height="50" relative="1" as="geometry">
            <mxPoint x="624" y="860" as="sourcePoint" />
            <mxPoint x="730" y="850" as="targetPoint" />
          </mxGeometry>
        </mxCell>
        <mxCell id="sbbsoj0sBZE7ObAFe4to-122" value="включить" style="edgeLabel;html=1;align=center;verticalAlign=middle;resizable=0;points=[];" vertex="1" connectable="0" parent="sbbsoj0sBZE7ObAFe4to-121">
          <mxGeometry x="0.2854" y="-1" relative="1" as="geometry">
            <mxPoint x="-21" y="-4" as="offset" />
          </mxGeometry>
        </mxCell>
        <mxCell id="sbbsoj0sBZE7ObAFe4to-123" value="Оповестить заявившего жалобу пользователя" style="ellipse;whiteSpace=wrap;html=1;" vertex="1" parent="1">
          <mxGeometry x="1060" y="705" width="130" height="50" as="geometry" />
        </mxCell>
        <mxCell id="sbbsoj0sBZE7ObAFe4to-124" value="" style="endArrow=classic;html=1;rounded=0;entryX=0;entryY=0.5;entryDx=0;entryDy=0;exitX=1;exitY=0.5;exitDx=0;exitDy=0;" edge="1" parent="1" source="sbbsoj0sBZE7ObAFe4to-106" target="sbbsoj0sBZE7ObAFe4to-123">
          <mxGeometry width="50" height="50" relative="1" as="geometry">
            <mxPoint x="634" y="870" as="sourcePoint" />
            <mxPoint x="740" y="860" as="targetPoint" />
          </mxGeometry>
        </mxCell>
        <mxCell id="sbbsoj0sBZE7ObAFe4to-125" value="включить" style="edgeLabel;html=1;align=center;verticalAlign=middle;resizable=0;points=[];" vertex="1" connectable="0" parent="sbbsoj0sBZE7ObAFe4to-124">
          <mxGeometry x="0.2854" y="-1" relative="1" as="geometry">
            <mxPoint x="-21" y="4" as="offset" />
          </mxGeometry>
        </mxCell>
        <mxCell id="sbbsoj0sBZE7ObAFe4to-128" value="" style="endArrow=classic;html=1;rounded=0;entryX=0.5;entryY=0;entryDx=0;entryDy=0;exitX=0.5;exitY=1;exitDx=0;exitDy=0;" edge="1" parent="1" source="sbbsoj0sBZE7ObAFe4to-106" target="sbbsoj0sBZE7ObAFe4to-120">
          <mxGeometry width="50" height="50" relative="1" as="geometry">
            <mxPoint x="880" y="770" as="sourcePoint" />
            <mxPoint x="620" y="775" as="targetPoint" />
          </mxGeometry>
        </mxCell>
        <mxCell id="sbbsoj0sBZE7ObAFe4to-129" value="расширить" style="edgeLabel;html=1;align=center;verticalAlign=middle;resizable=0;points=[];" vertex="1" connectable="0" parent="sbbsoj0sBZE7ObAFe4to-128">
          <mxGeometry x="0.2854" y="-1" relative="1" as="geometry">
            <mxPoint x="8" y="1" as="offset" />
          </mxGeometry>
        </mxCell>
        <mxCell id="sbbsoj0sBZE7ObAFe4to-130" value="Наказать пользователя, нарушевшего правила" style="ellipse;whiteSpace=wrap;html=1;" vertex="1" parent="1">
          <mxGeometry x="1140" y="810" width="180" height="40" as="geometry" />
        </mxCell>
        <mxCell id="sbbsoj0sBZE7ObAFe4to-132" value="" style="endArrow=classic;html=1;rounded=0;entryX=0.5;entryY=1;entryDx=0;entryDy=0;exitX=0.043;exitY=0.237;exitDx=0;exitDy=0;exitPerimeter=0;" edge="1" parent="1" source="sbbsoj0sBZE7ObAFe4to-130" target="sbbsoj0sBZE7ObAFe4to-123">
          <mxGeometry width="50" height="50" relative="1" as="geometry">
            <mxPoint x="980" y="770" as="sourcePoint" />
            <mxPoint x="1070" y="740" as="targetPoint" />
          </mxGeometry>
        </mxCell>
        <mxCell id="sbbsoj0sBZE7ObAFe4to-133" value="включить" style="edgeLabel;html=1;align=center;verticalAlign=middle;resizable=0;points=[];" vertex="1" connectable="0" parent="sbbsoj0sBZE7ObAFe4to-132">
          <mxGeometry x="0.2854" y="-1" relative="1" as="geometry">
            <mxPoint x="11" y="1" as="offset" />
          </mxGeometry>
        </mxCell>
        <mxCell id="sbbsoj0sBZE7ObAFe4to-134" value="" style="endArrow=classic;html=1;rounded=0;entryX=1;entryY=0.5;entryDx=0;entryDy=0;exitX=0;exitY=0.5;exitDx=0;exitDy=0;" edge="1" parent="1" source="sbbsoj0sBZE7ObAFe4to-130" target="sbbsoj0sBZE7ObAFe4to-120">
          <mxGeometry width="50" height="50" relative="1" as="geometry">
            <mxPoint x="930" y="790" as="sourcePoint" />
            <mxPoint x="1040" y="890" as="targetPoint" />
          </mxGeometry>
        </mxCell>
        <mxCell id="sbbsoj0sBZE7ObAFe4to-135" value="расширить" style="edgeLabel;html=1;align=center;verticalAlign=middle;resizable=0;points=[];" vertex="1" connectable="0" parent="sbbsoj0sBZE7ObAFe4to-134">
          <mxGeometry x="0.2854" y="-1" relative="1" as="geometry">
            <mxPoint x="8" y="1" as="offset" />
          </mxGeometry>
        </mxCell>
        <mxCell id="sbbsoj0sBZE7ObAFe4to-136" value="Просмотр списка пользователей" style="ellipse;whiteSpace=wrap;html=1;" vertex="1" parent="1">
          <mxGeometry x="190" y="820" width="150" height="50" as="geometry" />
        </mxCell>
        <mxCell id="sbbsoj0sBZE7ObAFe4to-139" value="" style="endArrow=classic;html=1;rounded=0;entryX=0;entryY=0;entryDx=0;entryDy=0;" edge="1" parent="1" source="sbbsoj0sBZE7ObAFe4to-94" target="sbbsoj0sBZE7ObAFe4to-136">
          <mxGeometry width="50" height="50" relative="1" as="geometry">
            <mxPoint x="140" y="748" as="sourcePoint" />
            <mxPoint x="250" y="770" as="targetPoint" />
          </mxGeometry>
        </mxCell>
        <mxCell id="sbbsoj0sBZE7ObAFe4to-140" value="Выбрать пользователя" style="ellipse;whiteSpace=wrap;html=1;" vertex="1" parent="1">
          <mxGeometry x="407" y="900" width="150" height="50" as="geometry" />
        </mxCell>
        <mxCell id="sbbsoj0sBZE7ObAFe4to-143" value="" style="endArrow=classic;html=1;rounded=0;entryX=1;entryY=1;entryDx=0;entryDy=0;exitX=0;exitY=0;exitDx=0;exitDy=0;" edge="1" parent="1" source="sbbsoj0sBZE7ObAFe4to-140" target="sbbsoj0sBZE7ObAFe4to-136">
          <mxGeometry width="50" height="50" relative="1" as="geometry">
            <mxPoint x="880" y="770" as="sourcePoint" />
            <mxPoint x="620" y="775" as="targetPoint" />
          </mxGeometry>
        </mxCell>
        <mxCell id="sbbsoj0sBZE7ObAFe4to-144" value="расширить" style="edgeLabel;html=1;align=center;verticalAlign=middle;resizable=0;points=[];" vertex="1" connectable="0" parent="sbbsoj0sBZE7ObAFe4to-143">
          <mxGeometry x="0.2854" y="-1" relative="1" as="geometry">
            <mxPoint x="32" y="12" as="offset" />
          </mxGeometry>
        </mxCell>
        <mxCell id="sbbsoj0sBZE7ObAFe4to-145" value="Сменить данные пользователя" style="ellipse;whiteSpace=wrap;html=1;" vertex="1" parent="1">
          <mxGeometry x="630" y="960" width="150" height="50" as="geometry" />
        </mxCell>
        <mxCell id="sbbsoj0sBZE7ObAFe4to-146" value="" style="endArrow=classic;html=1;rounded=0;entryX=1;entryY=1;entryDx=0;entryDy=0;exitX=0;exitY=0.5;exitDx=0;exitDy=0;" edge="1" parent="1" source="sbbsoj0sBZE7ObAFe4to-145" target="sbbsoj0sBZE7ObAFe4to-140">
          <mxGeometry width="50" height="50" relative="1" as="geometry">
            <mxPoint x="439" y="917" as="sourcePoint" />
            <mxPoint x="328" y="873" as="targetPoint" />
          </mxGeometry>
        </mxCell>
        <mxCell id="sbbsoj0sBZE7ObAFe4to-147" value="расширить" style="edgeLabel;html=1;align=center;verticalAlign=middle;resizable=0;points=[];" vertex="1" connectable="0" parent="sbbsoj0sBZE7ObAFe4to-146">
          <mxGeometry x="0.2854" y="-1" relative="1" as="geometry">
            <mxPoint x="21" y="12" as="offset" />
          </mxGeometry>
        </mxCell>
        <mxCell id="sbbsoj0sBZE7ObAFe4to-148" value="Сменить имя" style="ellipse;whiteSpace=wrap;html=1;" vertex="1" parent="1">
          <mxGeometry x="890" y="950" width="138" height="30" as="geometry" />
        </mxCell>
        <mxCell id="sbbsoj0sBZE7ObAFe4to-149" value="" style="endArrow=classic;html=1;rounded=0;entryX=1;entryY=0.5;entryDx=0;entryDy=0;exitX=0;exitY=0.5;exitDx=0;exitDy=0;" edge="1" parent="1" source="sbbsoj0sBZE7ObAFe4to-148" target="sbbsoj0sBZE7ObAFe4to-145">
          <mxGeometry width="50" height="50" relative="1" as="geometry">
            <mxPoint x="640" y="995" as="sourcePoint" />
            <mxPoint x="545" y="953" as="targetPoint" />
          </mxGeometry>
        </mxCell>
        <mxCell id="sbbsoj0sBZE7ObAFe4to-150" value="расширить" style="edgeLabel;html=1;align=center;verticalAlign=middle;resizable=0;points=[];" vertex="1" connectable="0" parent="sbbsoj0sBZE7ObAFe4to-149">
          <mxGeometry x="0.2854" y="-1" relative="1" as="geometry">
            <mxPoint x="17" y="-5" as="offset" />
          </mxGeometry>
        </mxCell>
        <mxCell id="sbbsoj0sBZE7ObAFe4to-151" value="Сменить пароль пользователю" style="ellipse;whiteSpace=wrap;html=1;" vertex="1" parent="1">
          <mxGeometry x="912" y="1010" width="148" height="40" as="geometry" />
        </mxCell>
        <mxCell id="sbbsoj0sBZE7ObAFe4to-152" value="" style="endArrow=classic;html=1;rounded=0;entryX=0.956;entryY=0.765;entryDx=0;entryDy=0;exitX=0;exitY=0.5;exitDx=0;exitDy=0;entryPerimeter=0;" edge="1" parent="1" source="sbbsoj0sBZE7ObAFe4to-151" target="sbbsoj0sBZE7ObAFe4to-145">
          <mxGeometry width="50" height="50" relative="1" as="geometry">
            <mxPoint x="900" y="975" as="sourcePoint" />
            <mxPoint x="790" y="995" as="targetPoint" />
          </mxGeometry>
        </mxCell>
        <mxCell id="sbbsoj0sBZE7ObAFe4to-153" value="расширить" style="edgeLabel;html=1;align=center;verticalAlign=middle;resizable=0;points=[];" vertex="1" connectable="0" parent="sbbsoj0sBZE7ObAFe4to-152">
          <mxGeometry x="0.2854" y="-1" relative="1" as="geometry">
            <mxPoint x="17" y="-5" as="offset" />
          </mxGeometry>
        </mxCell>
        <mxCell id="sbbsoj0sBZE7ObAFe4to-156" value="Сменить данные" style="ellipse;whiteSpace=wrap;html=1;" vertex="1" parent="1">
          <mxGeometry x="340" y="300" width="107" height="40" as="geometry" />
        </mxCell>
        <mxCell id="sbbsoj0sBZE7ObAFe4to-157" value="" style="endArrow=classic;html=1;rounded=0;entryX=0.057;entryY=0.769;entryDx=0;entryDy=0;entryPerimeter=0;" edge="1" parent="1" source="sbbsoj0sBZE7ObAFe4to-37" target="sbbsoj0sBZE7ObAFe4to-156">
          <mxGeometry width="50" height="50" relative="1" as="geometry">
            <mxPoint x="140" y="486" as="sourcePoint" />
            <mxPoint x="333" y="440" as="targetPoint" />
          </mxGeometry>
        </mxCell>
        <mxCell id="sbbsoj0sBZE7ObAFe4to-158" value="Ввод пароля" style="ellipse;whiteSpace=wrap;html=1;" vertex="1" parent="1">
          <mxGeometry x="713" y="130" width="90" height="40" as="geometry" />
        </mxCell>
        <mxCell id="sbbsoj0sBZE7ObAFe4to-159" value="" style="endArrow=classic;html=1;rounded=0;entryX=0;entryY=0.5;entryDx=0;entryDy=0;exitX=1;exitY=0.5;exitDx=0;exitDy=0;" edge="1" parent="1" source="sbbsoj0sBZE7ObAFe4to-25" target="sbbsoj0sBZE7ObAFe4to-158">
          <mxGeometry width="50" height="50" relative="1" as="geometry">
            <mxPoint x="591" y="120" as="sourcePoint" />
            <mxPoint x="655" y="49" as="targetPoint" />
          </mxGeometry>
        </mxCell>
        <mxCell id="sbbsoj0sBZE7ObAFe4to-160" value="включить" style="edgeLabel;html=1;align=center;verticalAlign=middle;resizable=0;points=[];" vertex="1" connectable="0" parent="sbbsoj0sBZE7ObAFe4to-159">
          <mxGeometry x="0.2854" y="-1" relative="1" as="geometry">
            <mxPoint x="-11" y="-6" as="offset" />
          </mxGeometry>
        </mxCell>
        <mxCell id="sbbsoj0sBZE7ObAFe4to-161" value="" style="endArrow=classic;html=1;rounded=0;entryX=1;entryY=0.5;entryDx=0;entryDy=0;exitX=0;exitY=1;exitDx=0;exitDy=0;" edge="1" parent="1" source="sbbsoj0sBZE7ObAFe4to-158" target="sbbsoj0sBZE7ObAFe4to-156">
          <mxGeometry width="50" height="50" relative="1" as="geometry">
            <mxPoint x="540" y="400" as="sourcePoint" />
            <mxPoint x="440" y="440" as="targetPoint" />
          </mxGeometry>
        </mxCell>
        <mxCell id="sbbsoj0sBZE7ObAFe4to-162" value="расширить" style="edgeLabel;html=1;align=center;verticalAlign=middle;resizable=0;points=[];" vertex="1" connectable="0" parent="sbbsoj0sBZE7ObAFe4to-161">
          <mxGeometry x="0.2854" y="-1" relative="1" as="geometry">
            <mxPoint x="14" y="-5" as="offset" />
          </mxGeometry>
        </mxCell>
        <mxCell id="sbbsoj0sBZE7ObAFe4to-163" value="Ввод имени" style="ellipse;whiteSpace=wrap;html=1;" vertex="1" parent="1">
          <mxGeometry x="424" y="210" width="100" height="40" as="geometry" />
        </mxCell>
        <mxCell id="sbbsoj0sBZE7ObAFe4to-164" value="" style="endArrow=classic;html=1;rounded=0;entryX=0.5;entryY=0;entryDx=0;entryDy=0;exitX=0.5;exitY=1;exitDx=0;exitDy=0;" edge="1" parent="1" source="sbbsoj0sBZE7ObAFe4to-163" target="sbbsoj0sBZE7ObAFe4to-156">
          <mxGeometry width="50" height="50" relative="1" as="geometry">
            <mxPoint x="736" y="174" as="sourcePoint" />
            <mxPoint x="457" y="330" as="targetPoint" />
          </mxGeometry>
        </mxCell>
        <mxCell id="sbbsoj0sBZE7ObAFe4to-165" value="расширить" style="edgeLabel;html=1;align=center;verticalAlign=middle;resizable=0;points=[];" vertex="1" connectable="0" parent="sbbsoj0sBZE7ObAFe4to-164">
          <mxGeometry x="0.2854" y="-1" relative="1" as="geometry">
            <mxPoint x="14" y="-5" as="offset" />
          </mxGeometry>
        </mxCell>
        <mxCell id="sbbsoj0sBZE7ObAFe4to-166" value="Добавить фотографию" style="ellipse;whiteSpace=wrap;html=1;" vertex="1" parent="1">
          <mxGeometry x="540" y="300" width="100" height="40" as="geometry" />
        </mxCell>
        <mxCell id="sbbsoj0sBZE7ObAFe4to-167" value="" style="endArrow=classic;html=1;rounded=0;entryX=0.923;entryY=0.781;entryDx=0;entryDy=0;exitX=0;exitY=0.5;exitDx=0;exitDy=0;entryPerimeter=0;" edge="1" parent="1" source="sbbsoj0sBZE7ObAFe4to-166" target="sbbsoj0sBZE7ObAFe4to-156">
          <mxGeometry width="50" height="50" relative="1" as="geometry">
            <mxPoint x="484" y="260" as="sourcePoint" />
            <mxPoint x="404" y="310" as="targetPoint" />
          </mxGeometry>
        </mxCell>
        <mxCell id="sbbsoj0sBZE7ObAFe4to-168" value="расширить" style="edgeLabel;html=1;align=center;verticalAlign=middle;resizable=0;points=[];" vertex="1" connectable="0" parent="sbbsoj0sBZE7ObAFe4to-167">
          <mxGeometry x="0.2854" y="-1" relative="1" as="geometry">
            <mxPoint x="25" y="-6" as="offset" />
          </mxGeometry>
        </mxCell>
        <mxCell id="sbbsoj0sBZE7ObAFe4to-171" value="Поставить временную фотографию" style="ellipse;whiteSpace=wrap;html=1;" vertex="1" parent="1">
          <mxGeometry x="751" y="1060" width="148" height="50" as="geometry" />
        </mxCell>
        <mxCell id="sbbsoj0sBZE7ObAFe4to-172" value="" style="endArrow=classic;html=1;rounded=0;entryX=0.5;entryY=1;entryDx=0;entryDy=0;exitX=0.459;exitY=-0.018;exitDx=0;exitDy=0;exitPerimeter=0;" edge="1" parent="1" source="sbbsoj0sBZE7ObAFe4to-171" target="sbbsoj0sBZE7ObAFe4to-145">
          <mxGeometry width="50" height="50" relative="1" as="geometry">
            <mxPoint x="892" y="1050" as="sourcePoint" />
            <mxPoint x="783" y="1008" as="targetPoint" />
          </mxGeometry>
        </mxCell>
        <mxCell id="sbbsoj0sBZE7ObAFe4to-173" value="расширить" style="edgeLabel;html=1;align=center;verticalAlign=middle;resizable=0;points=[];" vertex="1" connectable="0" parent="sbbsoj0sBZE7ObAFe4to-172">
          <mxGeometry x="0.2854" y="-1" relative="1" as="geometry">
            <mxPoint x="12" y="3" as="offset" />
          </mxGeometry>
        </mxCell>
      </root>
    </mxGraphModel>
  </diagram>
</mxfile>
